<svg width="94" height="79" viewBox="0 0 94 79" fill="none" xmlns="http://www.w3.org/2000/svg">
<path d="M66.5126 74.327V66.5129C66.5126 62.3681 64.8661 58.393 61.9352 55.4621C59.0044 52.5313 55.0293 50.8848 50.8844 50.8848H19.6281C15.4833 50.8848 11.5082 52.5313 8.57738 55.4621C5.64653 58.393 4 62.3681 4 66.5129V74.327" stroke="#0057FF" stroke-width="7.81407" stroke-linecap="round" stroke-linejoin="round"/>
<path d="M35.2561 35.2563C43.8873 35.2563 50.8842 28.2593 50.8842 19.6281C50.8842 10.997 43.8873 4 35.2561 4C26.6249 4 19.6279 10.997 19.6279 19.6281C19.6279 28.2593 26.6249 35.2563 35.2561 35.2563Z" stroke="#0057FF" stroke-width="7.81407" stroke-linecap="round" stroke-linejoin="round"/>
<path d="M89.955 74.3264V66.5123C89.9524 63.0496 88.7999 59.6858 86.6784 56.9491C84.5569 54.2124 81.5866 52.2578 78.2339 51.3921" stroke="#0057FF" stroke-width="7.81407" stroke-linecap="round" stroke-linejoin="round"/>
<path d="M62.6055 4.50781C65.9671 5.36854 68.9467 7.32362 71.0745 10.0648C73.2023 12.806 74.3572 16.1775 74.3572 19.6476C74.3572 23.1177 73.2023 26.4891 71.0745 29.2303C68.9467 31.9715 65.9671 33.9266 62.6055 34.7874" stroke="#0057FF" stroke-width="7.81407" stroke-linecap="round" stroke-linejoin="round"/>
</svg>
