<svg width="87" height="79" viewBox="0 0 87 79" fill="none" xmlns="http://www.w3.org/2000/svg">
<path d="M15.7211 58.6985H11.8141C9.74165 58.6985 7.75411 57.8753 6.28869 56.4098C4.82327 54.9444 4 52.9569 4 50.8844V11.8141C4 9.74165 4.82327 7.75411 6.28869 6.28869C7.75411 4.82327 9.74165 4 11.8141 4H74.3267C76.3991 4 78.3866 4.82327 79.8521 6.28869C81.3175 7.75411 82.1407 9.74165 82.1407 11.8141V50.8844C82.1407 52.9569 81.3175 54.9444 79.8521 56.4098C78.3866 57.8753 76.3991 58.6985 74.3267 58.6985H70.4196" stroke="#0057FF" stroke-width="7.81407" stroke-linecap="round" stroke-linejoin="round"/>
<path d="M43.0703 50.8843L62.6055 74.3265H23.5352L43.0703 50.8843Z" stroke="#0057FF" stroke-width="7.81407" stroke-linecap="round" stroke-linejoin="round"/>
</svg>
